<svg width="16" height="17" viewBox="0 0 16 17" fill="none" xmlns="http://www.w3.org/2000/svg">
<g id="solar:copy-bold" opacity="0.5">
<path id="Vector" d="M10.16 1.83325H7.564C6.388 1.83325 5.456 1.83325 4.72733 1.93192C3.97667 2.03325 3.36933 2.24659 2.89067 2.72725C2.41133 3.20792 2.19867 3.81792 2.098 4.57125C2 5.30325 2 6.23858 2 7.41925V11.3113C2 12.3166 2.61333 13.1779 3.48467 13.5393C3.44 12.9326 3.44 12.0826 3.44 11.3746V8.03459C3.44 7.18059 3.44 6.44392 3.51867 5.85459C3.60333 5.22259 3.794 4.61725 4.28333 4.12592C4.77267 3.63459 5.376 3.44325 6.00533 3.35792C6.592 3.27925 7.32533 3.27925 8.17667 3.27925H10.2233C11.074 3.27925 11.806 3.27925 12.3933 3.35792C12.2173 2.90883 11.9101 2.52318 11.5118 2.25122C11.1134 1.97927 10.6423 1.83361 10.16 1.83325Z" fill="white"/>
<path id="Vector_2" d="M4.3999 8.09801C4.3999 6.28068 4.3999 5.37201 4.96257 4.80734C5.52457 4.24268 6.42924 4.24268 8.2399 4.24268H10.1599C11.9699 4.24268 12.8752 4.24268 13.4379 4.80734C13.9999 5.37201 13.9999 6.28068 13.9999 8.09801V11.3113C13.9999 13.1287 13.9999 14.0373 13.4379 14.602C12.8752 15.1667 11.9699 15.1667 10.1599 15.1667H8.2399C6.4299 15.1667 5.52457 15.1667 4.96257 14.602C4.3999 14.0373 4.3999 13.1287 4.3999 11.3113V8.09801Z" fill="white"/>
</g>
</svg>
