<svg width="16" height="16" viewBox="0 0 16 16" fill="none" xmlns="http://www.w3.org/2000/svg">
<g id="2 - Regular / copy">
<path id="copy-Regular" d="M14.158 4.118L11.882 1.84196C11.6613 1.62129 11.3687 1.5 11.0573 1.5H7.33333C5.95467 1.5 4.83333 2.62133 4.83333 4V4.16667H4C2.62133 4.16667 1.5 5.288 1.5 6.66667V12C1.5 13.3787 2.62133 14.5 4 14.5H8.66667C10.0453 14.5 11.1667 13.3787 11.1667 12V11.8333H12C13.3787 11.8333 14.5 10.712 14.5 9.33333V4.94263C14.5 4.63129 14.3787 4.338 14.158 4.118ZM11.8333 3.20671L12.7927 4.16602H12.5413C12.1513 4.16602 11.8333 3.84801 11.8333 3.45801V3.20671ZM10.1667 12C10.1667 12.8273 9.494 13.5 8.66667 13.5H4C3.17267 13.5 2.5 12.8273 2.5 12V6.66667C2.5 5.83933 3.17267 5.16667 4 5.16667H4.83333V9.33333C4.83333 10.712 5.95467 11.8333 7.33333 11.8333H10.1667V12ZM12 10.8333H7.33333C6.506 10.8333 5.83333 10.1607 5.83333 9.33333V4C5.83333 3.17267 6.506 2.5 7.33333 2.5H10.8333V3.45866C10.8333 4.40066 11.5993 5.16667 12.5413 5.16667H13.5V9.33333C13.5 10.16 12.8273 10.8333 12 10.8333Z" fill="white"/>
</g>
</svg>
