<svg width="400" height="400" viewBox="0 0 400 400" fill="none" xmlns="http://www.w3.org/2000/svg">
<g clip-path="url(#clip0_182_19)">
<path d="M206.127 158.333H220.833V241.667H206.127V208.783H210.642L210.384 208.676L206.127 206.641L193.873 200.75V241.667H179.167V158.333H193.873V187.361L206.127 193.252V158.333Z" fill="white"/>
<path d="M165.014 307.429C153.313 304.671 142.789 299.693 133.71 292.428C125.371 285.735 117.672 278.234 110.072 270.666C87.3763 248.165 64.8482 225.428 42.2865 202.792C41.5131 202.018 40.807 201.244 40 200.37C47.1619 193.441 54.1221 186.714 61.1832 179.886C61.1159 181.064 61.0823 182.51 60.9814 183.956C60.6452 189.136 60.0735 194.315 60.0063 199.529C59.9727 201.177 60.8469 203.229 61.9902 204.406C89.2256 231.785 116.528 259.096 143.865 286.374C150.892 293.437 157.953 300.433 165.014 307.429Z" fill="white"/>
<path d="M360 200.202C352.737 207.433 345.777 214.328 338.481 221.56C338.481 220.248 338.413 219.105 338.481 217.995C338.884 212.041 339.388 206.088 339.624 200.101C339.657 198.856 339.086 197.242 338.212 196.367C313.632 171.68 289.02 147.059 264.373 122.439C254.454 112.516 244.535 102.628 234.885 92.0664C236.835 92.739 238.819 93.3444 240.769 94.0844C257.548 100.441 271.333 110.902 283.808 123.683C308.084 148.505 332.832 172.89 357.344 197.444C358.252 198.284 359.059 199.193 360 200.202Z" fill="white"/>
<path d="M92.3527 165.491C97.0264 149.649 104.39 135.489 116.058 123.818C142.99 96.9436 169.89 70.0359 196.789 43.0945C197.73 42.1528 198.302 40.8745 198.874 40C206.506 47.6687 213.399 54.5975 220.292 61.5263C216.291 61.2572 211.819 61.2907 207.481 60.5507C201.093 59.4744 196.486 61.1225 191.745 65.9658C159.634 98.6251 127.12 130.881 94.7399 163.271C93.933 164.045 93.126 164.751 92.3527 165.491Z" fill="white"/>
<path d="M200.353 360C193.124 352.869 186.063 345.941 178.666 338.642C183.238 338.945 187.475 339.18 191.678 339.55C202.27 340.424 202.202 340.391 209.734 332.823C241.408 301.105 273.082 269.422 304.789 237.738C305.529 236.998 306.336 236.359 307.378 235.888C304.655 245.373 300.351 253.983 295.173 262.224C288.28 273.256 278.663 281.833 269.619 290.914C247.292 313.349 224.865 335.682 202.505 358.049C201.732 358.789 200.891 359.495 200.353 360Z" fill="white"/>
<path d="M153.145 76.9981C147.765 82.2451 142.419 87.4919 137.039 92.7389C127.658 101.955 117.672 110.666 108.997 120.521C86.5693 146.016 77.02 176.12 79.3401 209.99C79.3401 210.191 79.2392 210.427 79.0375 211.368C74.9354 207.231 71.1022 203.431 67.3363 199.496C66.9329 199.058 67.101 198.016 67.1346 197.242C68.5132 143.931 100.624 97.078 150.018 77.0318C150.825 76.6954 151.632 76.4599 152.439 76.1572C152.674 76.4599 152.91 76.729 153.145 76.9981Z" fill="white"/>
<path d="M76.9864 247.358C81.9964 252.47 86.9056 257.683 91.9828 262.728C102.473 273.155 112.426 284.288 123.724 293.773C147.832 313.954 176.11 322.363 207.448 320.782C208.322 320.748 209.196 320.681 210.104 320.681C210.272 320.681 210.44 320.883 210.81 321.152C207.111 324.953 203.547 328.787 199.748 332.352C199.042 332.991 197.428 332.857 196.251 332.79C147.967 330.368 110.947 308.707 85.527 267.505C82.3663 262.359 80.0462 256.675 77.3899 251.226C76.8856 250.183 76.6166 249.039 76.2131 247.963C76.4485 247.727 76.7175 247.559 76.9864 247.358Z" fill="white"/>
<path d="M321.164 189.069C324.56 192.567 328.124 196.031 331.386 199.731C332.26 200.74 332.496 202.556 332.462 204.003C331.89 225.058 326.645 244.902 316.558 263.368C301.292 291.318 278.764 311.196 249.31 323.338C248.94 323.506 248.536 323.641 247.628 323.304C248.335 322.497 249.041 321.656 249.78 320.883C261.549 309.178 273.384 297.54 285.086 285.802C303.881 266.933 315.482 244.331 319.18 217.961C320.525 208.611 320.525 199.092 321.164 189.069Z" fill="white"/>
<path d="M322.476 152.945C317.432 147.698 312.422 142.418 307.345 137.204C298.939 128.594 290.802 119.647 281.925 111.474C256.741 88.2995 226.815 77.9063 192.687 79.4535C191.712 79.4871 190.703 79.4535 188.686 79.4535C191.779 76.3255 194.536 73.9038 196.89 71.1122C199.412 68.1523 202.27 67.2443 206.136 67.4798C241.341 69.666 271.367 83.1533 295.913 108.514C307.479 120.488 316.356 134.278 322.576 149.75C322.879 150.557 323.114 151.364 323.383 152.172C323.114 152.441 322.778 152.71 322.476 152.945Z" fill="white"/>
</g>
<defs>
<clipPath id="clip0_182_19">
<rect width="400" height="400" fill="white"/>
</clipPath>
</defs>
</svg>
