<svg width="38" height="38" viewBox="0 0 38 38" fill="none" xmlns="http://www.w3.org/2000/svg">
<g id="ooui:success" clip-path="url(#clip0_29_1111)">
<path id="Vector" d="M19 38C13.9609 38 9.12816 35.9982 5.56497 32.435C2.00178 28.8718 0 24.0391 0 19C0 13.9609 2.00178 9.12816 5.56497 5.56497C9.12816 2.00178 13.9609 0 19 0C24.0391 0 28.8718 2.00178 32.435 5.56497C35.9982 9.12816 38 13.9609 38 19C38 24.0391 35.9982 28.8718 32.435 32.435C28.8718 35.9982 24.0391 38 19 38Z" fill="white"/>
<path id="Vector_2" d="M26.125 15.2594L16.9643 24.3438L11.875 19L13.4018 17.3969L16.9643 21.1375L24.5982 13.6562L26.125 15.2594Z" fill="black"/>
</g>
<defs>
<clipPath id="clip0_29_1111">
<rect width="38" height="38" fill="white"/>
</clipPath>
</defs>
</svg>
